<?xml version="1.0" encoding="utf-8"?>
<!-- Generator: Adobe Illustrator 25.2.1, SVG Export Plug-In . SVG Version: 6.00 Build 0)  -->
<svg version="1.1" id="Layer_1" xmlns="http://www.w3.org/2000/svg" xmlns:xlink="http://www.w3.org/1999/xlink" x="0px" y="0px"
	 viewBox="0 0 818 165" style="enable-background:new 0 0 818 165;" xml:space="preserve">
<style type="text/css">
	.st0{fill:#005880;}
</style>
<g id="Logos" fill='#005880'>
	<path d="M208,9h48v13.8h-30.8V36H250v13.3h-24.8V75H208V9z"/>
	<path d="M279,25.6c14.9,0,25.3,11,25.3,25.4S293.9,76.4,279,76.4S253.8,65.5,253.8,51S264.2,25.6,279,25.6z M279,64.4
		c7.3,0,9.6-7.2,9.6-13.3s-2.3-13.4-9.6-13.4s-9.5,7.3-9.5,13.4S271.7,64.4,279,64.4z"/>
	<path  d="M356.1,75h-15.3v-6.6h-0.2c-3,4.9-9.1,8-14.6,8c-13.8,0-17.8-8-17.8-20.5V27H324v27.8c0,6.4,2.8,8.6,7.8,8.6
		c3.4,0,8.6-2.2,8.6-10.7V27h15.7L356.1,75z"/>
	<path  d="M361,27h15.3v6.6h0.2c2.9-4.9,9.4-8,15.1-8c16,0,17.3,11.7,17.3,18.6V75h-15.7V51.8c0-6.6,0.7-13.2-7.9-13.2
		c-5.9,0-8.5,5-8.5,10.3V75H361V27z"/>
	<path  d="M462,75h-15v-5.6h-0.2c-2.9,4.4-7.9,7.1-13.2,6.9c-15.1,0-21.5-13-21.5-26.5c0-12.5,6.7-24.3,20.3-24.3
		c5.9,0,10.5,2.2,13.7,6.6h0.2V9H462V75z M427.9,50.5c0,6.6,2.4,13.9,9.6,13.9c7.7,0,9.3-7.3,9.3-13.4c0-6.9-2.5-13.3-9.3-13.3
		C430.3,37.6,427.9,44.4,427.9,50.5z"/>
	<path  d="M467.9,41.8c0.3-6.3,3.2-10.4,7.5-12.9s9.8-3.3,15.3-3.3c11.4,0,22.4,2.5,22.4,16.1v21c0,4.1,0,8.5,1.8,12.3
		H499c-0.5-1.5-0.8-3-0.9-4.5c-4.1,4.2-10.1,5.9-15.8,5.9c-9.2,0-16.4-4.6-16.4-14.5c0-15.6,17-14.4,27.9-16.6
		c2.7-0.6,4.2-1.5,4.2-4.4c0-3.6-4.4-5-7.6-5c-4.3,0-7.1,1.9-7.9,6L467.9,41.8z M488.2,66.7c7.5,0,10-4.3,9.6-14.2
		c-2.2,1.4-6.3,1.7-9.7,2.6s-6.5,2.3-6.5,6.1S484.7,66.7,488.2,66.7z"/>
	<path d="M542.4,37.2h-9.7V59c0,3.8,2.2,4.6,5.6,4.6c1.3,0,2.7-0.2,4.1-0.2V75c-2.9,0.1-5.7,0.5-8.6,0.5
		c-13.4,0-16.8-3.9-16.8-16.9V15h15.7v12h9.7V37.2z"/>
	<path  d="M561.8,21H546V9h15.7L561.8,21z M546,27h15.7v48H546V27z"/>
	<path  d="M591,25.6c14.9,0,25.3,11,25.3,25.4S605.8,76.4,591,76.4S565.8,65.5,565.8,51S576.1,25.6,591,25.6z M591,64.4
		c7.3,0,9.6-7.2,9.6-13.3s-2.4-13.4-9.6-13.4s-9.5,7.3-9.5,13.4S583.7,64.4,591,64.4z"/>
	<path  d="M620,27h15.3v6.6h0.2c2.9-4.9,9.3-8,15.1-8c16,0,17.3,11.7,17.3,18.6V75h-15.7V51.8c0-6.6,0.7-13.2-7.9-13.2
		c-5.9,0-8.5,5-8.5,10.3V75H620V27z"/>
	<path  d="M756.3,135.2c0.5,13.4,12.1,17.2,23.5,17.2c10.8,0,23-4.2,23-17.1c0-4-2.5-11-12.2-13
		c-7.2-1.6-17.8-2.4-17.8-6.9c0-3.3,4.2-3.6,6.7-3.6c1.7-0.1,3.5,0.3,5,1.2c1.4,0.9,2.2,2.5,2,4.2h14.5
		c-0.6-12.5-11.5-15.5-22.1-15.5c-9.4,0-21.9,3.2-21.9,14.7c0,13,12.4,13.2,22.3,15.7c2.8,0.6,7.7,1.4,7.7,5.1s-4.3,5.1-7.4,5.1
		c-2.1,0.1-4.1-0.5-5.8-1.7c-1.7-1.3-2.6-3.3-2.6-5.4L756.3,135.2z M203,128.8c0.1,16.9,13.5,23.6,28.6,23.6
		c14.5,0,28.7-5.4,28.7-22.1c0-11.9-9.6-16.4-19.1-19s-19.1-3.6-19.1-8.7c0-4.3,4.6-5.6,8.3-5.6c5.3,0,10.9,1.9,10.6,7.9h17.2
		c-0.1-14.9-13.3-21.3-26.4-21.3c-12.4,0-26.9,5.6-26.9,20.1c0,12.1,9.9,16.4,19.3,19.1s18.9,3.8,18.9,9.6c0,4.9-5.4,6.8-10.5,6.8
		c-7.3,0-12.1-2.5-12.4-10.3L203,128.8z M332,108.5V103h-15v62h15.7v-19.2h0.2c3.2,4.4,7.8,6.6,13.7,6.6c13.6,0,20.2-11.8,20.2-24.3
		c0-13.5-6.4-26.4-21.5-26.4c-5.3-0.1-10.3,2.5-13.2,6.9L332,108.5z M341.8,113.6c6.9,0,9.3,6.8,9.3,12.9c0,6.6-2.4,13.9-9.4,13.9
		s-9.5-5.5-9.5-13.9C332.1,116.6,337.5,113.6,341.8,113.6L341.8,113.6z M424.8,127.1c0,14.4,10.4,25.3,25.2,25.3
		s25.3-10.9,25.3-25.3s-10.5-25.4-25.3-25.4S424.7,112.6,424.8,127.1L424.8,127.1z M440.5,127.1c0-6.1,2.2-13.4,9.5-13.4
		s9.6,7.3,9.6,13.4s-2.3,13.3-9.6,13.3S440.4,133.1,440.5,127.1L440.5,127.1z M479,151h15.7v-23.8c0-6,4.1-11.4,11.8-11.4
		c2,0,4.1,0.3,6,0.9v-14.3c-1.2-0.3-2.4-0.4-3.7-0.4c-6.8,0-12.1,3.2-14.4,9.3h-0.2V103H479V151z M538.2,103h-6.5V91H516v43.5
		c0,13,3.4,16.9,16.8,16.9c2.9,0,5.7-0.4,8.6-0.5v-11.6c-1.4,0-2.8,0.2-4.1,0.2c-3.4,0-5.6-0.9-5.6-4.6v-21.8h9.7L538.2,103z
		 M617.7,127c0,14.4,10.3,25.3,25.2,25.3s25.3-10.9,25.3-25.3s-10.4-25.4-25.3-25.4S617.7,112.6,617.7,127L617.7,127z M633.4,127
		c0-6.1,2.2-13.4,9.5-13.4s9.6,7.3,9.6,13.4s-2.3,13.3-9.6,13.3S633.4,133.1,633.4,127L633.4,127z M672,151h15.7v-23.8
		c0-6,4.1-11.4,11.8-11.4c2,0,4.1,0.3,6,0.9v-14.3c-1.2-0.3-2.5-0.4-3.7-0.4c-6.7,0-12.1,3.2-14.4,9.3h-0.2V103H672V151z M709,151
		h15.7v-15.4l4.1-4l11.7,19.4h19l-19.8-29.9l17.5-18.1H739l-14.3,16V83H709V151z M809.9,147.8h1.2V146h1l1.2,1.8h1.4l-1.4-2
		c0.3-0.1,0.6-0.3,0.9-0.6c0.2-0.3,0.3-0.7,0.3-1.1l0,0c0-0.5-0.2-0.9-0.5-1.3c-0.4-0.4-1-0.6-1.6-0.6h-2.5L809.9,147.8z
		 M811.1,144.9v-1.6h1.2c0.3,0,0.5,0,0.7,0.2c0.2,0.1,0.3,0.4,0.2,0.6l0,0c0,0.2-0.1,0.4-0.2,0.6c-0.2,0.2-0.4,0.2-0.7,0.2
		L811.1,144.9z M818,145c0,3.3-2.7,6-6,6s-6-2.7-6-6s2.7-6,6-6S818,141.7,818,145z M816.8,145c0-2.6-2.1-4.8-4.8-4.8
		c-2.6,0-4.8,2.1-4.8,4.8c0,2.6,2.1,4.8,4.8,4.8S816.8,147.6,816.8,145C816.8,145,816.8,145,816.8,145z M619.5,103h-16l-7.8,31h-0.2
		l-7-31h-15l-6.8,31.1h-0.2l-8-31.1h-15.9l15,48h15.9l7.5-31.9h0.2l7.5,31.9h15.9L619.5,103z M282,152.4c5.5,0,11.6-3.1,14.6-8h0.2
		v6.6H312v-48h-15.7v25.7c0,8.5-5.2,10.7-8.6,10.7c-5,0-7.7-2.2-7.7-8.6V103h-15.7v28.9C264.2,144.4,268.2,152.4,282,152.4z
		 M386,108.5V103h-15v62h15.7v-19.2h0.2c3.2,4.4,7.8,6.6,13.7,6.6c13.6,0,20.2-11.8,20.2-24.3c0-13.5-6.4-26.4-21.5-26.4
		c-5.3-0.1-10.3,2.5-13.2,6.9L386,108.5z M395.8,113.6c6.9,0,9.3,6.8,9.3,12.9c0,6.6-2.4,13.9-9.4,13.9s-9.5-5.5-9.5-13.9
		C386.1,116.6,391.5,113.6,395.8,113.6L395.8,113.6z"/>
	<path  d="M96,92c0-8.8-7.2-16-16-16c-4.4,0-8-3.6-8-8s3.6-8,8-8c17.7,0,32,14.3,32,32s-14.3,32-32,32v-16
		C88.8,108,96,100.8,96,92z M160,80c0-44.2-35.8-80-80-80S0,35.8,0,80s35.8,80,80,80C124.2,160,160,124.2,160,80z M144,80
		c0,35.3-28.7,64-64,64s-64-28.7-64-64s28.7-64,64-64C115.3,16,144,44.7,144,80z M80,100c4.4,0,8-3.6,8-8s-3.6-8-8-8
		c-8.8,0-16-7.2-16-16s7.2-16,16-16V36c-17.7,0-32,14.3-32,32S62.3,100,80,100z"/>
</g>
</svg>
