<?xml version="1.0" encoding="utf-8"?>
<!-- Generator: Adobe Illustrator 25.2.1, SVG Export Plug-In . SVG Version: 6.00 Build 0)  -->
<svg version="1.1" id="Layer_1" xmlns="http://www.w3.org/2000/svg" xmlns:xlink="http://www.w3.org/1999/xlink" x="0px" y="0px"
	 viewBox="0 0 525 131.7" style="enable-background:new 0 0 525 131.7;" xml:space="preserve">
<g id="Logos" fill='#FDD26E'>
<path d="M76.3,42.4l-33.8-24l-33.8,24L0,30.2L42.5,0L85,30.2L76.3,42.4z M141.3,110V45h-15.1v65H141.3z M162.7,110V45
	h-15.1v65H162.7z M214.7,77.4c-1.3-2.9-3.1-5.4-5.4-7.5c-2.3-2.1-5.1-3.7-8-4.7c-6.2-2.2-13-2.2-19.3,0c-2.9,1-5.6,2.6-7.9,4.7
	c-2.3,2.1-4.1,4.7-5.4,7.5c-1.4,3.1-2.1,6.5-2,9.9c0,3.4,0.6,6.8,2,10c1.3,2.9,3.1,5.5,5.4,7.6c2.3,2.1,5,3.7,7.9,4.8
	c6.2,2.3,13.1,2.3,19.3,0c2.9-1.1,5.7-2.7,8-4.8c2.3-2.1,4.2-4.7,5.4-7.6c1.4-3.2,2-6.6,2-10C216.8,83.9,216.1,80.5,214.7,77.4z
	 M201.7,91.6c-0.4,1.4-1.1,2.6-2,3.8c-0.9,1.1-2,2-3.3,2.7c-2.9,1.3-6.3,1.3-9.2,0c-1.3-0.6-2.4-1.5-3.4-2.7c-0.9-1.1-1.6-2.4-2-3.8
	c-0.9-2.8-0.9-5.7,0-8.5c0.4-1.3,1.1-2.6,2-3.7s2-2,3.3-2.6c2.9-1.3,6.3-1.3,9.2,0c1.3,0.6,2.4,1.5,3.4,2.6c0.9,1.1,1.6,2.3,2.1,3.7
	c0.5,1.4,0.7,2.8,0.7,4.3C202.5,88.8,202.2,90.2,201.7,91.6L201.7,91.6z M295.5,106.1V72.2h-26.4v12.5h12.2v11.7
	c-1.4,0.6-3,1.1-4.5,1.3c-1.7,0.3-3.4,0.4-5.1,0.4c-2.9,0.1-5.7-0.5-8.4-1.5c-2.3-0.9-4.4-2.3-6.1-4.2c-1.7-1.8-3-4-3.8-6.4
	c-0.9-2.6-1.3-5.4-1.3-8.1s0.4-5.4,1.4-8c0.9-2.3,2.2-4.5,3.9-6.3c1.7-1.8,3.7-3.2,6-4.2c2.4-1,4.9-1.5,7.5-1.5
	c2.9,0,5.8,0.5,8.4,1.7c2.3,1,4.3,2.4,6,4.3l9.8-11.1c-3.1-2.8-6.7-4.9-10.6-6.2c-4.5-1.6-9.3-2.3-14.1-2.3c-4.7,0-9.3,0.8-13.6,2.3
	c-4.1,1.5-7.8,3.8-11,6.7c-3.2,3-5.7,6.6-7.5,10.6c-1.8,4.4-2.7,9.1-2.7,13.9c-0.1,4.7,0.8,9.4,2.6,13.8c1.7,4,4.1,7.6,7.3,10.6
	s7,5.4,11.1,6.9c4.5,1.7,9.3,2.5,14.1,2.4c4.6,0,9.2-0.5,13.7-1.5C288.3,109.2,292,107.9,295.5,106.1L295.5,106.1z M309,79.2
	c1.5-1.3,3.2-2.4,5-3.3c1.9-0.9,4-1.4,6.1-1.3c2-0.1,4.1,0.5,5.8,1.6c1.6,1.1,2.5,3,2.4,4.9v0.7c-3.3,0-6.7,0.2-10,0.5
	c-3.2,0.3-6.3,1-9.4,2.2c-2.6,1-5,2.5-6.9,4.6c-1.9,2.2-2.8,5-2.7,7.9c-0.1,2.3,0.5,4.6,1.5,6.7c1,1.7,2.3,3.2,3.9,4.3
	c1.6,1.1,3.4,1.9,5.3,2.3c1.8,0.5,3.7,0.7,5.6,0.7c2.6,0,5.2-0.5,7.5-1.5c2.1-0.9,4-2.4,5.2-4.3h0.3v4.8h13.6V87.3
	c0.1-3.6-0.3-7.1-1.1-10.6c-0.6-2.7-1.8-5.2-3.6-7.4c-1.7-2-3.9-3.5-6.4-4.3c-3.1-1-6.4-1.5-9.6-1.4c-3.7,0-7.3,0.6-10.8,1.9
	c-3.5,1.2-6.6,3.2-9.3,5.7L309,79.2z M328.7,91.9c0.1,2.5-0.7,4.9-2.4,6.7c-1.6,1.7-3.9,2.5-6.9,2.5c-0.8,0-1.5-0.1-2.3-0.2
	c-0.7-0.1-1.4-0.4-2.1-0.8c-0.6-0.4-1.1-0.9-1.5-1.4c-0.4-0.6-0.6-1.4-0.6-2.2c-0.1-1.2,0.4-2.4,1.3-3.2c0.9-0.9,2-1.5,3.2-1.8
	c1.4-0.4,2.9-0.7,4.4-0.9c1.7-0.2,3.3-0.2,4.9-0.2h1.9v1.5H328.7z M376.8,64.1c-0.5-0.1-0.9-0.2-1.4-0.3c-0.6-0.1-1.2-0.1-1.8-0.1
	c-2.6-0.1-5.2,0.7-7.3,2.2c-2.1,1.4-3.8,3.4-4.9,5.6h-0.2V65H347v45h14.8V86.9c0-1.1,0.2-2.1,0.5-3.2c0.4-1.2,1-2.3,1.8-3.3
	c0.9-1.1,2-2,3.3-2.6c1.6-0.8,3.3-1.1,5-1.1c0.6,0,1.2,0,1.9,0.1c0.7,0.1,1.3,0.2,2,0.4L376.8,64.1z M383.1,75.9
	c1.9-0.9,4-1.4,6.1-1.3c2.1-0.1,4.1,0.5,5.8,1.6c1.6,1.1,2.5,3,2.4,4.9v0.7c-3.3,0-6.7,0.2-10,0.5c-3.2,0.3-6.3,1-9.4,2.2
	c-2.6,1-5,2.5-6.9,4.6c-1.9,2.2-2.9,5-2.8,7.9c-0.1,2.3,0.5,4.6,1.5,6.7c1,1.7,2.3,3.2,3.9,4.3c1.6,1.1,3.4,1.9,5.3,2.3
	c1.8,0.5,3.7,0.7,5.6,0.7c2.6,0,5.2-0.5,7.5-1.5c2.1-0.9,4-2.4,5.2-4.3h0.3v4.8h13.5V87.3c0.1-3.6-0.3-7.1-1.1-10.6
	c-0.6-2.7-1.8-5.2-3.6-7.4c-1.7-2-3.9-3.5-6.4-4.3c-3.1-1-6.4-1.5-9.6-1.4c-3.7,0-7.3,0.6-10.8,1.9L383.1,75.9z M397.7,91.9
	c0.1,2.5-0.7,4.9-2.4,6.7c-1.6,1.7-3.9,2.5-6.9,2.5c-0.8,0-1.5-0.1-2.3-0.2c-0.7-0.1-1.4-0.4-2.1-0.8c-0.6-0.4-1.1-0.8-1.5-1.4
	c-0.4-0.7-0.6-1.4-0.6-2.2c0-1.2,0.4-2.4,1.3-3.2c0.9-0.9,2-1.5,3.2-1.8c1.4-0.5,2.9-0.7,4.4-0.9c1.6-0.2,3.3-0.2,4.9-0.2h1.9
	L397.7,91.9z M464.6,65h-14v5.8h-0.2c-1.5-2.4-3.7-4.2-6.2-5.3c-2.6-1.1-5.3-1.7-8.1-1.7c-3.1,0-6.2,0.6-9,1.9
	c-2.6,1.2-4.9,3-6.7,5.2c-1.9,2.2-3.3,4.8-4.2,7.5c-1,2.9-1.5,5.9-1.4,8.9c0,3,0.5,6,1.4,8.9c0.9,2.7,2.3,5.2,4.2,7.4
	c1.9,2.1,4.2,3.8,6.7,5c2.9,1.3,6,1.9,9.1,1.8c2.8,0.1,5.5-0.5,8-1.6c2.2-1,4.1-2.5,5.6-4.3h0.3v2.7c0.2,3.3-1,6.6-3.1,9.1
	c-2.1,2.3-5.3,3.4-9.6,3.4c-2.6,0-5.3-0.5-7.7-1.4c-2.6-0.9-5.1-2.4-7.2-4.3l-7.5,10.6c3.3,2.4,7,4.2,10.9,5.2
	c4,1.2,8.1,1.8,12.2,1.8c3.7,0,7.4-0.5,10.9-1.6c3.1-1,6-2.6,8.4-4.8c2.4-2.3,4.2-5,5.3-8.1c1.3-3.7,2-7.6,1.9-11.5L464.6,65z
	 M449.8,91.7c-0.5,1.3-1.2,2.6-2.2,3.6c-2.1,2.2-5,3.5-8,3.4c-1.5,0-3.1-0.3-4.5-0.9c-1.3-0.6-2.4-1.5-3.3-2.5
	c-0.9-1.1-1.6-2.3-2.1-3.7c-0.5-1.4-0.7-2.9-0.7-4.3c0-1.5,0.2-3,0.7-4.4c0.4-1.3,1.2-2.6,2.1-3.6s2-1.9,3.3-2.4
	c1.4-0.6,2.9-0.9,4.5-0.9s3.1,0.3,4.5,0.9c1.3,0.6,2.5,1.4,3.4,2.5c1,1.1,1.7,2.3,2.2,3.7c0.5,1.4,0.8,2.9,0.8,4.3
	C450.5,88.7,450.3,90.2,449.8,91.7z M513.8,77.7c-1-2.8-2.6-5.5-4.6-7.7c-2-2.1-4.4-3.8-7.1-4.8c-2.9-1.1-6-1.7-9.1-1.7
	c-3.3,0-6.5,0.5-9.6,1.7c-2.9,1.1-5.5,2.7-7.7,4.8c-2.2,2.2-4,4.7-5.2,7.6c-1.3,3.2-1.9,6.6-1.9,10c-0.1,3.5,0.6,6.9,1.9,10.1
	c1.2,2.8,3,5.4,5.3,7.5c2.3,2,5,3.6,7.9,4.6c3.1,1.1,6.3,1.6,9.6,1.6c4.2,0.1,8.3-0.7,12.1-2.5c3.4-1.6,6.3-4,8.4-7.1l-10.3-6.5
	c-1.1,1.4-2.4,2.6-4,3.4c-1.9,0.9-3.9,1.4-6,1.3c-2.6,0-5.1-0.8-7.2-2.4c-1-0.7-1.8-1.7-2.4-2.7s-1-2.2-1.1-3.4h32.6
	c0.1-0.6,0.1-1.1,0.1-1.7V88C515.5,84.5,515,81,513.8,77.7L513.8,77.7z M482.8,82.4c0.1-1.2,0.4-2.3,0.9-3.3s1.3-2,2.2-2.8
	c0.9-0.8,2-1.4,3.2-1.9c1.3-0.5,2.6-0.7,4-0.7c3,0,5.2,0.8,6.6,2.5c1.5,1.7,2.2,3.8,2.2,6L482.8,82.4z M116.5,72.6
	c-1.7-2.5-3.9-4.6-6.5-6.2c-2.5-1.5-5.3-2.5-8.1-2.8c-3.1-0.3-6.2-0.1-9.3,0.8c-3.2,0.8-6.2,2.2-8.8,4.1c-5.1,3.6-8.4,9.2-9.2,15.3
	c-0.4,3.4-0.2,6.8,0.8,10.1c0.8,3.4,2.4,6.5,4.5,9.3c1.9,2.4,4.3,4.4,7,5.9c2.8,1.4,5.8,2.2,8.8,2.4c3.3,0.2,6.5-0.1,9.7-1
	c4-1,7.8-2.9,11-5.5c2.8-2.4,5-5.5,6.2-9L111,92.3c-0.7,1.6-1.7,3.1-3,4.3c-1.5,1.4-3.4,2.3-5.4,2.8c-2.5,0.7-5.2,0.5-7.6-0.5
	c-1.1-0.5-2.1-1.1-3-1.9s-1.6-1.9-2-3l31.5-8.4c-0.1-0.6-0.2-1.1-0.4-1.7l-0.5-1.8C119.9,78.7,118.4,75.5,116.5,72.6z M87.7,85.1
	c-0.2-1.1-0.2-2.3,0-3.4c0.2-1.2,0.7-2.2,1.4-3.2c0.7-1,1.6-1.9,2.6-2.6c1.1-0.8,2.4-1.3,3.7-1.7c2.8-0.8,5.2-0.5,7.1,0.7
	c1.8,1.2,3.2,3.1,3.7,5.3L87.7,85.1z M30,47.5H14.6V110H30V95.9c4.1,1,8.3,1.5,12.5,1.6c4.2,0,8.4-0.5,12.5-1.6V110h15.4V47.5H55
	v32.8c-8.1,2.9-16.9,2.9-24.9,0L30,47.5z M515,68.5c0-0.6,0.1-1.2,0.4-1.8c0.5-1.1,1.3-1.9,2.4-2.4c1.1-0.5,2.4-0.5,3.5,0
	s1.9,1.3,2.4,2.4s0.5,2.4,0,3.5s-1.3,1.9-2.4,2.4c-1.1,0.5-2.4,0.5-3.5,0s-1.9-1.3-2.4-2.4C515.1,69.7,515,69.1,515,68.5z
	 M516.2,68.5c0,0.5,0.1,0.9,0.3,1.3s0.4,0.8,0.7,1.1c0.3,0.3,0.6,0.5,1,0.7c0.8,0.4,1.7,0.4,2.5,0c0.4-0.2,0.7-0.4,1-0.7
	c0.3-0.3,0.5-0.7,0.7-1.1s0.3-0.9,0.3-1.3c0-0.5-0.1-0.9-0.3-1.3s-0.4-0.8-0.7-1.1c-0.3-0.3-0.6-0.5-1-0.7c-0.8-0.4-1.7-0.4-2.5,0
	c-0.4,0.2-0.7,0.4-1,0.7c-0.3,0.3-0.5,0.7-0.7,1.1S516.2,68,516.2,68.5z M517.8,66.1h1.7h0.5c0.2,0,0.5,0.1,0.7,0.2s0.4,0.3,0.6,0.4
	c0.2,0.3,0.3,0.6,0.2,0.9c0,0.2,0,0.4-0.1,0.6c-0.1,0.1-0.1,0.3-0.3,0.4c-0.1,0.1-0.2,0.2-0.3,0.2c-0.1,0.1-0.3,0.1-0.4,0.1l1.2,1.9
	h-1.3l-1.1-1.8H519v1.8h-1.2V66.1z M519,68.1h0.7c0.1,0,0.2,0,0.3-0.1c0.1,0,0.1-0.1,0.2-0.2c0.1-0.1,0.1-0.2,0.1-0.3
	c0-0.1,0-0.2-0.1-0.3c0-0.1-0.1-0.1-0.2-0.2c-0.1,0-0.2-0.1-0.2-0.1H519V68.1z"/>
	</g>
</svg>
