<?xml version="1.0" encoding="utf-8"?>
<!-- Generator: Adobe Illustrator 25.2.1, SVG Export Plug-In . SVG Version: 6.00 Build 0)  -->
<svg version="1.1" id="Layer_1" xmlns="http://www.w3.org/2000/svg" xmlns:xlink="http://www.w3.org/1999/xlink" x="0px" y="0px"
	 viewBox="0 0 75 75" style="enable-background:new 0 0 75 75;" xml:space="preserve">
<style type="text/css">
	.st0{fill:none;stroke:#0A1A2E;stroke-width:3;}
	.st1{fill:#F2FBFE;stroke:#0A1A2E;stroke-width:3;}
	.st2{fill:#0A1A2E;stroke:#0A1A2E;stroke-width:3;}
	.st3{fill:#00C2E1;stroke:#0A1A2E;stroke-width:2.48;}
</style>
<polyline class="st0" points="33.1,37.3 33.1,35.6 33.1,52.2 61.5,52 61.5,37.1 61.4,34 47.3,19.9 33.2,34 33.1,35.6 "/>
<polyline class="st1" points="18.9,52.2 47.3,52 47.3,37.1 47.2,34 33.1,19.9 19,34 19,52.2 "/>
<line class="st0" x1="61.4" y1="34" x2="47.2" y2="34"/>
<polygon class="st2" points="47.2,18.9 47.2,18.9 61.4,33.6 47.2,33.6 33.2,18.9 "/>
<line class="st0" x1="69.6" y1="52.2" x2="9.2" y2="52.2"/>
<path class="st3" d="M32.9,59.1L32.9,59.1c-4,0-7.2-3.3-7.2-7.2c0-1,0.2-2,0.6-2.9l6.6-14.4l0,0L39.5,49c1.6,3.6,0,7.9-3.6,9.5
	C34.9,58.9,33.9,59.1,32.9,59.1z"/>
</svg>
