<?xml version="1.0" encoding="utf-8"?>
<!-- Generator: Adobe Illustrator 25.2.1, SVG Export Plug-In . SVG Version: 6.00 Build 0)  -->
<svg version="1.1" id="Layer_1" xmlns="http://www.w3.org/2000/svg" xmlns:xlink="http://www.w3.org/1999/xlink" x="0px" y="0px"
	 viewBox="0 0 75 75" style="enable-background:new 0 0 75 75;" xml:space="preserve">
<style type="text/css">
	.st0{fill:#00C2E1;stroke:#0A1A2E;stroke-width:3;}
	.st1{fill:#F2FBFE;stroke:#0A1A2E;stroke-width:3;}
	.st2{fill:none;stroke:#F2FBFE;stroke-width:3;}
</style>
<path class="st0" d="M13.5,21.2h50.6l0,0v35.7l0,0h-45c-3.1,0-5.6-2.5-5.6-5.6L13.5,21.2L13.5,21.2z"/>
<path class="st0" d="M59,15.5L59,15.5c2.9,0,5.2,2.3,5.2,5.2l0,0v36.2l0,0H53.8l0,0V20.7C53.7,17.8,56.1,15.5,59,15.5
	C58.9,15.5,58.9,15.5,59,15.5z"/>
<circle class="st1" cx="59" cy="57.5" r="5.2"/>
<path class="st1" d="M19.7,56.8c-3.1,0-5.6-2.5-5.6-5.6c0-3.1,2.5-5.6,5.6-5.6c0,0,0,0,0,0v-7.9V15.5l0,0c-3.6,0-6.6,2.3-6.6,5.2
	v29.9c0,3.5,2.8,6.3,6.3,6.3h10"/>
<line class="st2" x1="46.1" y1="45.2" x2="37.8" y2="45.2"/>
<line class="st2" x1="46.1" y1="39.5" x2="37.8" y2="39.5"/>
<line class="st2" x1="38.8" y1="42.4" x2="29.5" y2="42.4"/>
<line class="st2" x1="37.8" y1="27.6" x2="37.8" y2="50.4"/>
</svg>
