<?xml version="1.0" encoding="utf-8"?>
<!-- Generator: Adobe Illustrator 25.2.1, SVG Export Plug-In . SVG Version: 6.00 Build 0)  -->
<svg version="1.1" id="Layer_1" xmlns="http://www.w3.org/2000/svg" xmlns:xlink="http://www.w3.org/1999/xlink" x="0px" y="0px"
	 viewBox="0 0 75 75" style="enable-background:new 0 0 75 75;" xml:space="preserve">
<style type="text/css">
	.st0{fill:#F2FBFE;stroke:#0A1A2E;stroke-width:3;}
	.st1{fill:#00577C;stroke:#0A1A2E;stroke-width:3;}
	.st2{fill:none;stroke:#0A1A2E;stroke-width:3;}
	.st3{fill:#0A1A2E;}
	.st4{fill:#FFFFFF;stroke:#0A1A2E;stroke-width:3;}
</style>
<polygon class="st0" points="63.6,51.4 36.4,51.4 32.2,26.8 48.6,26.8 53.8,26.8 59.4,26.8 55.5,39.6 "/>
<polygon class="st1" points="48.6,44.6 20,44.6 15.8,20 44.4,20 "/>
<line class="st2" x1="14.3" y1="12.6" x2="22.8" y2="65.8"/>
<polygon class="st3" points="50.3,46.1 35.1,52.5 34,45 "/>
<path class="st4" d="M15.7,66.8c-0.1-3.7,2.7-6.8,6.4-7s6.8,2.7,7,6.4c0,0.2,0,0.3,0,0.5"/>
<line class="st2" x1="17.7" y1="35.7" x2="46.7" y2="35.7"/>
<line class="st2" x1="17.7" y1="26.8" x2="46.7" y2="26.8"/>
</svg>
