<?xml version="1.0" encoding="utf-8"?>
<!-- Generator: Adobe Illustrator 25.2.1, SVG Export Plug-In . SVG Version: 6.00 Build 0)  -->
<svg version="1.1" id="Layer_1" xmlns="http://www.w3.org/2000/svg" xmlns:xlink="http://www.w3.org/1999/xlink" x="0px" y="0px"
	 viewBox="0 0 75 75" style="enable-background:new 0 0 75 75;" xml:space="preserve">
<style type="text/css">
	.st0{fill:#00C2E1;}
	.st1{fill:none;stroke:#0A1A2E;stroke-width:3;}
	.st2{fill:#0A1A2E;}
</style>
<rect x="27.4" y="42.8" class="st0" width="34.9" height="12.1"/>
<line class="st1" x1="69.1" y1="55.4" x2="8.6" y2="55.4"/>
<polygon class="st1" points="27.2,42.8 62.3,53.8 62.3,30.2 27.2,30.2 "/>
<rect x="14.6" y="40.1" class="st1" width="12.5" height="14.8"/>
<line class="st1" x1="23.7" y1="30.2" x2="65.6" y2="30.2"/>
<rect x="27.4" y="33.5" class="st1" width="34.9" height="9.3"/>
<rect x="27.4" y="30.3" class="st2" width="34.9" height="3.2"/>
<line class="st1" x1="32.3" y1="44.4" x2="32.3" y2="55.4"/>
<line class="st1" x1="38" y1="46.2" x2="38" y2="55.4"/>
<line class="st1" x1="43.8" y1="47.9" x2="43.8" y2="55.4"/>
<line class="st1" x1="49.6" y1="49.8" x2="49.6" y2="55.4"/>
<line class="st1" x1="37.5" y1="23.5" x2="30.2" y2="16.1"/>
<line class="st1" x1="52" y1="23.5" x2="59.4" y2="16.1"/>
<line class="st1" x1="44.8" y1="23.4" x2="44.8" y2="11.6"/>
</svg>
