<?xml version="1.0" encoding="utf-8"?>
<!-- Generator: Adobe Illustrator 25.2.1, SVG Export Plug-In . SVG Version: 6.00 Build 0)  -->
<svg version="1.1" id="Layer_1" xmlns="http://www.w3.org/2000/svg" xmlns:xlink="http://www.w3.org/1999/xlink" x="0px" y="0px"
	 viewBox="0 0 75 75" style="enable-background:new 0 0 75 75;" xml:space="preserve">
<style type="text/css">
	.st0{fill:#F2FBFE;stroke:#0A1A2E;stroke-width:3;}
	.st1{fill:#FCD26E;stroke:#0A1A2E;stroke-width:3;}
	.st2{fill:none;stroke:#0A1A2E;stroke-width:3;}
	.st3{fill:#0A1A2E;}
	.st4{fill:#FFFFFF;stroke:#0A1A2E;stroke-width:3;}
</style>
<polygon class="st0" points="64.4,47.6 37.2,47.6 33,23 49.4,23 54.6,23 60.2,23 56.3,35.8 "/>
<polygon class="st1" points="49.4,40.8 20.8,40.8 16.6,16.2 45.2,16.2 "/>
<line class="st2" x1="15.1" y1="8.9" x2="23.6" y2="62.1"/>
<polygon class="st3" points="51.2,42.3 35.9,48.7 34.8,41.3 "/>
<path class="st4" d="M16.5,63c-0.1-3.7,2.7-6.8,6.4-7c3.7-0.1,6.8,2.7,7,6.4c0,0.2,0,0.3,0,0.5"/>
<line class="st2" x1="18.5" y1="32" x2="47.5" y2="32"/>
<line class="st2" x1="18.5" y1="23" x2="47.5" y2="23"/>
</svg>
